<?xml version="1.0" encoding="utf-8"?>
<!-- Generator: Adobe Illustrator 27.0.1, SVG Export Plug-In . SVG Version: 6.00 Build 0)  -->
<svg version="1.1" id="Capa_1" xmlns="http://www.w3.org/2000/svg" xmlns:xlink="http://www.w3.org/1999/xlink" x="0px" y="0px"
	 viewBox="0 0 841.9 595.3" style="enable-background:new 0 0 841.9 595.3;" xml:space="preserve">
<style type="text/css">
	.st0{fill:#FC646F;}
	.st1{fill:#FB4755;}
	.st2{fill:#F4F4F4;}
	.st3{fill:#E8E8E8;}
	.st4{fill:#50758C;}
	.st5{fill:#FEC581;}
	.st6{fill:#FAC591;}
	.st7{fill:#FEAB5C;}
	.st8{fill:#F4C799;}
	.st9{fill:#F5C798;}
	.st10{fill:#ECECEC;}
	.st11{fill:#EBEBEB;}
	.st12{fill:#FAB978;}
	.st13{fill:#92DCB6;}
	.st14{fill:#2B597F;}
	.st15{fill:#F3F3F3;}
	.st16{fill:#F3F3F4;}
</style>
<g>
	<path class="st0" d="M229,248.1c4.5-8.5,9-17.1,13.5-25.6c5.8-10.8,11.6-21.5,17.4-32.2c1.3-1.2,3-1.1,4.6-1.1
		c15.9,0,31.8,0,47.7,0c1.4,0,2.7,0,4,0.7c1.9,1.5,1,3.4,0.8,5.2c-2.2,14.6-4.2,29.2-6.3,43.9c-0.3,2.1-0.3,4.2-0.7,6.3
		c-0.8,2.3-0.4,4.7-0.5,7c-0.1,1.6,0.2,3.3-1.3,4.5c-1.7,1-3.6,0.8-5.5,0.9c-22.7,0-45.4,0-68.1,0c-2,0-4,0.3-5.7-1.2
		C229,253.6,229,250.9,229,248.1z"/>
	<path class="st0" d="M581.9,190.3c9.3,17.3,18.7,34.5,28,51.9c1.3,2.3,2,5,3,7.5c0,2.2,0,4.5,0,6.7c-1.4,1.3-3.2,1.2-4.9,1.2
		c-23.3,0-46.5,0-69.8,0c-1.5,0-3,0-4.4-0.7c-1.3-0.9-1.4-2.3-1.5-3.7c-1.1-18.6-4.5-36.8-6.5-55.3c-0.3-2.6-1.7-5.3,0.3-7.9
		c1.7-1,3.6-0.8,5.5-0.8c14.9,0,29.7,0,44.6,0C578.1,189.2,580.2,188.9,581.9,190.3z"/>
	<path class="st1" d="M533.5,256.4c26.5,0,52.9,0,79.4,0c0,1.5,0,3,0,4.5c-1.3,1.6-1.2,3.7-1.9,5.5c-5.1,13.5-14.7,21.7-28.8,24.7
		c-0.8,0.8-1.8,1.4-3,1.5c-16.2,1.3-31.6-2.3-41.8-19c-2.1-3.5-3.6-7.1-4.2-11.1c-0.1-1.3-0.6-2.6-0.6-3.9c0-0.6,0.1-1.1,0.4-1.6
		C533.2,256.7,533.3,256.5,533.5,256.4z"/>
	<path class="st1" d="M229,256.4c26.5,0,52.9,0,79.4,0c0.1,0.1,0.3,0.2,0.4,0.4c0.3,0.5,0.4,1,0.4,1.6c0,1.3-0.5,2.5-0.6,3.7
		c-2.5,11.9-9.3,20.5-19.8,26.3c-8.1,4.4-16.9,4.7-25.8,4.2c-1.3-0.1-2.4-0.6-3.3-1.6c-15.9-3.5-26-13.1-30-29
		c-0.1-0.4-0.5-0.8-0.7-1.2C229,259.4,229,257.9,229,256.4z"/>
	<path class="st2" d="M582.1,305.1c0,46.3,0,92.7,0,139c0,14.2-11.3,27.2-25.3,29.8c-2.9,0.5-5.7,0.7-8.5,0.7
		c-82.2,0-164.4,0-246.6,0c-14.5-1.9-22.9-10.4-26.7-24.2c-0.6-2.2-0.7-4.4-0.7-6.7c0-44.2,0-88.5,0-132.7c0-6.1,0.1-6.3,6.1-7.9
		c5.8-1.6,10.9-4.3,15.3-8.3c5.8-5.8,9.3-12.8,11.6-20.5c0.6-0.6,1.1-1.1,2-0.7c1.1,1.5,1.1,3.3,1.5,5c3.5,13.6,17.4,24.3,31.3,25.7
		c18.2,1.8,35.9-10.4,40-28c0.2-0.7,0.4-1.4,0.9-2.1c0.5-0.6,1.1-1.1,2-0.7c1,1.2,0.9,2.8,1.4,4.2c3.8,13.2,12.4,21.9,25.6,25.3
		c12.8,3.3,24.4,0.4,34.3-8.7c5.2-4.7,8.5-10.3,10.4-17c0.2-0.6,0.3-1.2,0.6-1.8c0.4-0.8,0.8-1.7,1.8-1.6c1.1,0.1,1.3,1.1,1.5,1.9
		c1.1,4.5,2.8,8.8,5.5,12.6c8.8,12.5,21.2,17.4,35.9,15.2c14.5-2.2,23.9-11.1,28.5-25c0.5-1.5,0.6-3.2,1.8-4.5
		c0.9-0.3,1.5,0.2,2,0.8c2.5,8.9,6.6,16.6,14.3,22.1c6.1,4.4,12.7,7.1,20.4,7C573.6,304.2,578,303.1,582.1,305.1z"/>
	<path class="st3" d="M582.1,305.1c-7-0.3-14.1,1.1-20.9-0.8c-13.8-3.9-22.7-12.9-26.9-26.6c-0.2-0.8-0.2-1.7-0.2-2.6
		c-0.7-1-0.9-2.2-1.3-3.6c0-0.3-0.7,0.4-0.2,0.2c0.2-0.1,0.3,0,0.3,0.2c0.1,0.8,0.5,1.7-0.3,2.4c-2.7,17.2-16.2,29-31.3,30.6
		c-19.3,2.1-36.7-8.2-42.2-30.9c-1.1,3-2,5.5-2.9,8c-5.1,13.7-21.1,24-35.6,23.2c-13.6-0.7-24.1-6.6-31.3-18.1
		c-2.6-4.1-4.4-8.6-4.4-13.7c-0.5,0.2,0.1-1.5-0.8-0.5c-0.3,0.3-0.4,0.9-0.7,1.2c-2.1,15.9-17.6,29.9-34,30.9
		c-12.2,0.7-22.5-2.8-30.9-11.5c-5.3-5.6-9.2-12-9.4-20.1c-0.5-0.9-0.6-1-0.8-0.5c-0.2,0.4-0.3,0.9-0.7,1.2c-1,8-5.2,14.4-10.5,20.2
		c-1,0.8-2,0.3-2.6-0.4c-2-2.2-5.1-3.5-5.6-6.9c9.9-5.9,16.6-14.2,18.8-25.7c0.4-0.8,0.9-1.3,1.8-0.5c2.3,7.6,5.8,14.4,11.8,20
		c13.7,12.8,36.9,12.6,50.3-0.4c5.1-4.9,8.5-10.6,10.5-17.4c0.4-1.5,0.5-3.3,2.8-3.3c0.8,0.9,0.9,2,1.1,3.1
		c6.3,23.7,33.1,34.9,54.2,22.4c7.6-4.5,13-11.1,15.9-19.6c0.6-1.8,0.8-3.7,1.9-5.2c0.5-0.3,1.1-0.3,1.7-0.1c1.1,1,1.1,2.5,1.5,3.7
		c5,15.7,19.1,26.3,34.9,26.3c15.8,0,29.8-10.7,34.8-26.4c0.3-1.1,0.5-2.2,1.1-3.2c0.9-0.8,1.3-0.3,1.7,0.5
		c3.3,17.1,18.4,29.8,35.9,30c4.1,0,8.2,0.3,12.2-0.6C582.1,295.7,582.1,300.4,582.1,305.1z"/>
	<path class="st3" d="M289,287.3c2.6,2.5,4.5,5.9,8.2,7.3c-4.6,5.3-10.6,8.2-17.3,9.7c-3.6,0.8-4.6,2.3-4.6,5.9
		c0.1,44,0.3,87.9,0,131.9c-0.1,15.4,9.8,28.1,24.4,31.6c0.7,0.2,1.5,0.1,2,0.8c-5.5-0.3-10.9,0.6-16.4-0.6
		c-13.3-2.8-21.4-10.9-24.9-23.9c-0.2-0.8-0.4-1.7-0.7-2.5c0.6-2.2,0.6-4.5,0-6.7c0-49.9,0-99.9,0-149.8
		C269.8,292.4,279.7,291.9,289,287.3z"/>
	<path class="st3" d="M259.8,440.8c1.2,2.2,1.2,4.5,0,6.7C259.8,445.3,259.8,443.1,259.8,440.8z"/>
	<path class="st4" d="M581.9,190.3c-18.7,0.1-37.3,0.1-56,0.2c-1.2,1-2.7,1.1-4.2,1.1c-20.8,0-41.7,0.2-62.5-0.1
		c-25,0.2-50,0.2-75,0c-21.1,0.2-42.2,0.1-63.3,0.1c-1.5,0-3-0.1-4.3-1.1c-18.9-0.1-37.8-0.1-56.7-0.2c0-14.5-1.1-29,0.5-43.4
		c1.7-14.5,14.3-25.4,28.9-26.1c1.1-0.1,2.2-0.1,3.4-0.1c85.4,0,170.9,0,256.3,0c16,0,28,8.8,31.8,23.2c0.6,2.2,1,4.4,1,6.6
		C582,163.8,582,177.1,581.9,190.3z"/>
	<path class="st5" d="M316.7,190.5c22.5,0,45.1,0,67.6,0c1.2,1.3,1.1,3,1.1,4.6c0,18.9,0,37.8,0,56.7c0,1.4,0,2.7-0.5,4
		c-0.2,0.5-0.6,0.8-1,1.1c-1.6,0.8-3.4,0.7-5.1,0.7c-21.3,0-42.7,0-64,0c-1.8,0-3.8,0.2-5.4-0.9c-0.8-3.9-0.6-7.7-0.1-11.6
		c0.1-8.7,2.2-17.1,3.2-25.7C313.5,209.7,315.2,200.1,316.7,190.5z"/>
	<path class="st6" d="M309.2,245.1c0,3.8,0,7.5,0,11.3c-0.2,0.3-0.5,0.3-0.7,0c0,0-0.1,0-0.1,0C308.9,252.6,307.7,248.8,309.2,245.1
		z"/>
	<path class="st5" d="M459.1,190.5c22.3,0,44.5,0,66.8,0c1.5,12,3,24,4.6,36c1.3,9.9,3,19.8,2.9,29.9c0,0-0.1,0-0.1,0
		c-1.4,1.3-3.2,1.2-4.9,1.2c-21.5,0-43.1,0-64.6,0c-1.4,0-2.7,0-4-0.5c-0.5-0.2-0.8-0.6-1.1-1c-0.6-1.3-0.7-2.7-0.7-4
		c0-19,0-38,0-57C458,193.5,457.9,191.8,459.1,190.5z"/>
	<path class="st7" d="M459.2,256.4c24.7,0,49.4,0,74.1,0c0,0.5,0,1,0,1.6c-0.8,0.9,0.2,2.1-0.6,3c-1.7,13.6-13.7,26.3-28.1,29.7
		c-19.5,4.6-39.8-7.9-44.5-27.4c-0.2-0.7-0.1-1.5-0.2-2.2c-0.8-0.9-1-1.9-1.2-3.1C458.7,257.3,458.8,256.8,459.2,256.4z"/>
	<path class="st8" d="M532.7,260.9c0-1-0.3-2.2,0.6-3c0.2,1.2,0.4,2.4,0.7,3.7C533.6,261.4,533.1,261.2,532.7,260.9z"/>
	<path class="st7" d="M308.5,256.4c0.2,0,0.5,0,0.7,0c25,0,50,0,74.9,0c1,1.1,1.6,2.4,0.5,3.8c-1.1,0.7-1.1,1.8-1.4,2.9
		c-4.2,16.6-19,28.3-35.6,28.5c-18.5,0.2-33.2-10.5-38-27.7c-0.3-0.9-0.3-2-0.5-2.9c-0.8-0.9,0.1-2.1-0.6-3
		C308.6,257.4,308.6,256.9,308.5,256.4z"/>
	<path class="st9" d="M308.6,257.9c1,0.8,0.6,2,0.6,3c-0.4,0.2-0.9,0.5-1.3,0.7C308.1,260.4,308.3,259.2,308.6,257.9z"/>
	<path class="st4" d="M428,403.9c-16.1,0-32.2,0-48.3,0c-2.7,0-4,0.1-3.2,3.6c2.1,8.9,4.3,11,13.5,11c26.6,0,53.2,0,79.8,0
		c1.2,0,2.5-0.1,3.7,0.1c2.9,0.5,4.9,2,5.1,5.1c0.3,3.1-1.1,5.4-4.2,6.1c-1.8,0.4-2.6,0.8-2.1,3.1c1.3,7.2-1.3,13.1-7.3,17.2
		c-5.7,4-12,4.3-18.1,0.9c-6.2-3.4-9.2-8.9-8.9-16.1c0.2-4.8,0.2-4.8-4.8-4.8c-5.7,0-11.5,0.1-17.2,0c-2.1,0-2.8,0.4-2.4,2.8
		c1.3,7.5-1.4,13.6-7.8,17.6c-6.3,4-12.9,3.8-19-0.4c-6.2-4.3-8.7-10.5-7-18c0.5-2.2,0.3-3.1-1.9-4.1c-6.3-2.9-10.3-7.8-11.8-14.6
		c-5.5-25.6-10.9-51.2-16.4-76.8c-0.3-1.2-0.5-2.4-0.8-3.7c-1.2-5.6-4.5-8.4-10.2-8.5c-2.9-0.1-5.8,0.1-8.6-0.1
		c-4-0.2-6.5-2.6-6.5-5.8c0-3.4,2.7-5.8,6.9-5.8c4.4,0,8.7-0.5,13.1,0.5c8,1.8,13.4,6.6,15.9,14.3c0.8,2.6,2,3.1,4.5,3.1
		c41.5-0.1,82.9,0,124.4,0c7.2,0,9.1,2.3,7.7,9.4c-3.8,19.1-7.6,38.1-11.5,57.2c-1.1,5.4-2.8,6.7-8.5,6.8
		C460,403.9,444,403.9,428,403.9z"/>
	<path class="st10" d="M532.7,274.4c0-1,0-1.9,0-3.2c1.2,1.3,1.5,2.6,1.5,4C533.7,274.9,533.2,274.6,532.7,274.4z"/>
	<path class="st10" d="M307.7,274.4c0.1-0.9-0.3-2.2,1.1-2.4c0.5-0.1,0.4,1,0.4,1.6C308.7,273.9,308.2,274.1,307.7,274.4z"/>
	<path class="st11" d="M383.5,274.4c0.1-0.9-0.3-2.2,1.1-2.4c0.5-0.1,0.4,1,0.4,1.6C384.5,273.9,384,274.1,383.5,274.4z"/>
	<path class="st1" d="M384.7,260.2c-0.2-1.3-0.3-2.5-0.5-3.8c0,0,0.1,0.1,0.1,0.1c1.4-1.4,3.2-1.3,4.9-1.3c21.6,0,43.3,0,64.9,0
		c1.7,0,3.5-0.1,4.9,1.2c0,0,0.1,0,0.1,0c0,0.5,0,1,0,1.5c0.7,1.2-0.1,2.1-0.6,3c-2.6,17.4-18.6,30.7-36.9,30.7
		C403.2,291.6,387.4,278.3,384.7,260.2z"/>
	<path class="st12" d="M458.6,260.9c0.2-1,0.4-2,0.6-3c1.1,0.8,0.7,2,0.7,3.1C459.5,260.9,459,260.9,458.6,260.9z"/>
	<path class="st0" d="M459.1,256.4c-24.9,0-49.9,0-74.8,0c0-22,0-44,0-66c24.9,0,49.9,0,74.8,0C459.1,212.5,459.1,234.4,459.1,256.4
		z"/>
	<path class="st2" d="M427.8,150.1c3.9-8.9,10.8-12.2,20.3-12.1c32.6,0.2,65.1,0.1,97.7,0.1c10.5,0,17.8,6.3,18.7,16
		c0.6,6.8-2.4,12-7.7,16.1c-3.2,3.7-7.6,4-12,4.1c-12.4,0.1-24.7,0-37.1,0c-19.6,0-39.2,0-58.8,0c-2.9,0-5.7-0.1-8.5-0.8
		c-7.8-2-13.7-8.8-14.4-16.8C425.8,154.3,425.9,151.9,427.8,150.1z"/>
	<path class="st5" d="M324.6,149.2c5.7-12.9,20.6-14.4,28.9-5.8c6.7,7,6.7,17.6-0.2,24.5c-0.7,0.7-1.4,1.4-2.1,2.1
		c-5.7,5.7-13.3,4.9-19.3,1.6c-6.6-3.6-10.5-11.7-9.2-18.5C323,151.6,323.3,150.2,324.6,149.2z"/>
	<path class="st13" d="M370.7,147.7c1.2-1.6,2.3-3.3,3.7-4.7c7.3-7.3,18.8-6.6,25.8,1.5c6.2,7.3,4.6,19.3-3.4,25.1
		c-0.5,0.4-0.9,0.8-1.4,1.2c-2.9,3.3-6.8,3.6-10.6,3.2c-9.6-1-16.7-9.3-16.5-19C368.2,152.2,369.2,149.9,370.7,147.7z"/>
	<path class="st0" d="M279.4,147.7c5.9-8.5,13-11.6,21.1-8.8c6.3,2.1,10.3,6.5,11.6,13c1.3,6.7-0.6,12.5-6.1,17
		c-0.5,0.4-0.9,0.8-1.3,1.3c-6.8,6.3-19.7,3.9-24.9-4.9C276.6,159.5,274.9,153.6,279.4,147.7z"/>
	<path class="st14" d="M427.8,150.1c-0.8,3.7-1,7.4,0.2,11c2.6,7.2,9,11.8,17.3,11.8c33.7,0,67.3,0,101,0c3.7,0,7.1-1,10.3-2.7
		c-2.1,4.5-7.8,8.2-13.8,8.2c-34.3,0.1-68.6,0.1-102.9-0.1c-7,0-12.7-3.2-15.9-9.9c-2.7-5.9-2.3-11.6,1.3-17
		C426,150.7,426.1,148.9,427.8,150.1z"/>
	<path class="st14" d="M279.4,147.7c-3.6,11.5,0.8,21.3,10.9,24.3c5,1.5,9.8,0.4,14.3-1.9c-1.8,4.4-8.4,8.5-13.9,8.2
		c-10.2-0.6-18.2-8.5-17.5-18.4C273.6,155,275.2,150.7,279.4,147.7z"/>
	<path class="st14" d="M370.7,147.7c-3.1,10.4-0.8,18.2,6.9,22.8c5.8,3.5,11.8,3.2,17.8,0.3c0.9,0.9,0,1.3-0.4,1.8
		c-6.2,6.8-15.6,7.6-23.6,2c-6.5-4.6-8.7-14.3-4.7-21.7C367.7,150.9,368.7,148.9,370.7,147.7z"/>
	<path class="st14" d="M324.6,149.2c-2.5,7.8-0.9,14.6,5.4,19.8c6.7,5.5,13.9,5.1,21.1,0.9c-4.7,7-12.4,10-19.6,7.6
		c-8.1-2.7-13.2-9.4-12.5-17.7C319.4,155.8,320.1,151.4,324.6,149.2z"/>
	<path class="st2" d="M423.8,342c5.6,0,11.2,0.1,16.9,0c2.1,0,2.8,0.5,2.4,2.8c-0.8,4.5-1.4,9.1-1.7,13.7c-0.2,2.2-0.8,3-3.1,3
		c-9.7-0.1-19.5-0.1-29.2,0c-1.7,0-2.8-0.2-3-2.3c-0.4-4.2-0.8-8.5-1.6-12.6c-0.6-3.4,0.1-4.9,4-4.6
		C413.5,342.3,418.7,342,423.8,342z"/>
	<path class="st2" d="M423.8,372.8c3.9,0,7.7,0.2,11.6-0.1c3-0.2,4.3,0.4,3.7,3.8c-0.8,4.4-1.2,8.9-1.6,13.3
		c-0.2,1.5-0.6,2.3-2.3,2.2c-7.6,0-15.2,0-22.8,0c-1.5,0-2.3-0.5-2.5-2.1c-0.5-4.8-1.1-9.7-1.7-14.5c-0.3-2.1,0.4-2.9,2.6-2.8
		C415.1,372.9,419.5,372.8,423.8,372.8z"/>
	<path class="st2" d="M377.8,342c3.9,0,7.7,0.1,11.6,0c2.1-0.1,3.1,0.4,3.3,2.8c0.4,4.8,1.2,9.6,1.9,14.4c0.2,1.6-0.1,2.3-1.9,2.2
		c-8-0.1-15.9,0-23.9,0c-1.3,0-2.1-0.4-2.4-1.8c-1-5-2.1-10-3.1-15c-0.4-1.9,0.1-2.8,2.2-2.7C369.6,342.1,373.7,342,377.8,342z"/>
	<path class="st2" d="M469.6,342c4,0,8,0,12,0c1.7,0,2.2,0.4,1.8,2.2c-1.1,5.1-2.2,10.2-3.1,15.4c-0.3,1.4-0.9,1.8-2.2,1.8
		c-7.7,0-15.5,0-23.2,0c-1.6,0-2.2-0.3-1.9-2.1c0.8-4.9,1.3-9.9,1.8-14.9c0.2-2,1.1-2.5,2.9-2.5C461.6,342,465.6,342,469.6,342z"/>
	<path class="st2" d="M382.9,372.8c2.7,0,5.5,0.3,8.2-0.1c4-0.5,5.6,0.9,5.7,4.9c0.2,4,0.8,7.9,1.5,11.9c0.4,2.3-0.5,2.7-2.6,2.7
		c-6.6-0.1-13.2,0-19.8,0c-1.4,0-2.6,0.1-3-1.9c-0.9-5-1.9-10-3.1-15c-0.6-2.3,0.5-2.5,2.3-2.5C375.7,372.9,379.3,372.8,382.9,372.8
		z"/>
	<path class="st2" d="M464.3,372.8c3.5,0,7,0.1,10.5,0c2.3-0.1,2.8,0.9,2.3,2.9c-1,4.7-2,9.5-2.9,14.2c-0.3,1.7-1.1,2.2-2.8,2.2
		c-6.8-0.1-13.7-0.1-20.5,0c-1.6,0-2.1-0.5-1.9-2.2c0.7-4.9,1.4-9.8,1.9-14.8c0.2-1.8,0.9-2.4,2.6-2.4
		C457,372.9,460.6,372.8,464.3,372.8z"/>
	<path class="st15" d="M461.1,435.8c0.1,3.1-2.4,5.7-5.6,5.8c-3.3,0.1-6-2.6-6-5.8c0.1-3.1,2.6-5.6,5.8-5.6
		C458.5,430.2,461,432.6,461.1,435.8z"/>
	<path class="st16" d="M396.5,441.6c-3.2-0.1-5.6-2.6-5.6-5.8c0-3.3,2.7-5.8,6-5.6c3.2,0.1,5.5,2.7,5.4,5.9
		C402.2,439.3,399.6,441.7,396.5,441.6z"/>
</g>
</svg>
